<svg xmlns="http://www.w3.org/2000/svg" viewBox="0 0 56 84.69"><defs><style>.a{fill:#fff;}</style></defs><title>meter</title><path class="a" d="M65.5,32.53a28,28,0,0,0-56,0l9.56,21A20.25,20.25,0,0,0,29.48,80.65v8.57h16V80.65A20.25,20.25,0,0,0,55.84,53.36ZM48.45,52a1.81,1.81,0,0,1-3.61,0V39.77a1.81,1.81,0,0,1,3.61,0V52ZM40.89,31.19A3.39,3.39,0,0,0,37.5,27.8a3.34,3.34,0,0,0-1.17.22,17.91,17.91,0,0,0-1.12-1.67c-1-1.38-2.52-2.23-3.82-3.31s-2.61-2.14-3.94-3.18-2.68-2.06-4.07-3a0.18,0.18,0,0,0-.26.26c1,1.39,2,2.71,3,4.07s2.1,2.65,3.18,3.95,1.93,2.82,3.31,3.82A19.54,19.54,0,0,0,34.33,30a3.34,3.34,0,0,0-.22,1.17H16.84a20.77,20.77,0,0,1,41.55,0H40.89Z" transform="translate(-9.5 -4.53)"/></svg>