<svg xmlns="http://www.w3.org/2000/svg" viewBox="0 0 14.4 21.78"><title>meter</title><path d="M19.2,8.31a7.2,7.2,0,1,0-14.4,0l2.46,5.4A5.21,5.21,0,0,0,9.8,20.62l0.14,0.06v2.2h4.11v-2.2a5.21,5.21,0,0,0,2.75-6.83l-0.08-.19Zm-4.38,5a0.47,0.47,0,0,1-.93,0V10.17a0.47,0.47,0,0,1,.93,0v3.14ZM12.87,8A0.87,0.87,0,0,0,12,7.09h0a0.86,0.86,0,0,0-.3.06,4.61,4.61,0,0,0-.29-0.43,5.2,5.2,0,0,0-1-.85l-1-.82c-0.34-.27-0.69-0.53-1-0.77a0,0,0,0,0-.07.07l0.77,1c0.26,0.35.54,0.68,0.82,1a5.2,5.2,0,0,0,.85,1,5,5,0,0,0,.44.27,0.86,0.86,0,0,0-.06.3H6.69A5.34,5.34,0,0,1,17.37,8h-4.5Z" transform="translate(-4.8 -1.11)" style="fill:#514d4d"/></svg>