<?xml version="1.0" encoding="utf-8"?>
<!-- Generator: Adobe Illustrator 19.2.0, SVG Export Plug-In . SVG Version: 6.00 Build 0)  -->
<svg version="1.1" id="Layer_1" xmlns="http://www.w3.org/2000/svg" xmlns:xlink="http://www.w3.org/1999/xlink" x="0px" y="0px"
	 width="24px" height="24px" viewBox="0 0 24 24" style="enable-background:new 0 0 24 24;" xml:space="preserve">
<style type="text/css">
	.st0{fill:#514D4D;}
</style>
<title>meter</title>
<path class="st0" d="M19.2,8.3c0-4-3.2-7.2-7.2-7.2S4.8,4.3,4.8,8.3l2.5,5.4c-1.2,2.6-0.1,5.7,2.5,6.9c0,0,0.1,0,0.1,0.1v2.2h4.1
	v-2.2c2.6-1.1,3.9-4.2,2.7-6.8c0-0.1-0.1-0.1-0.1-0.2L19.2,8.3z M14.8,13.3c0,0.3-0.2,0.4-0.5,0.4c-0.2,0-0.4-0.2-0.4-0.4v-3.1
	c0-0.3,0.2-0.4,0.5-0.4c0.2,0,0.4,0.2,0.4,0.4V13.3z M12.9,8c0-0.5-0.4-0.9-0.9-0.9l0,0c-0.1,0-0.2,0-0.3,0.1
	c-0.1-0.1-0.2-0.3-0.3-0.4c-0.3-0.4-0.6-0.6-1-0.9s-0.7-0.6-1-0.8c-0.3-0.3-0.7-0.5-1-0.8c0,0,0,0-0.1,0c0,0,0,0,0,0.1
	c0.3,0.4,0.5,0.7,0.8,1c0.3,0.3,0.5,0.7,0.8,1c0.3,0.3,0.5,0.7,0.9,1c0.1,0.1,0.3,0.2,0.4,0.3c0,0.1-0.1,0.2-0.1,0.3H6.7
	c0-3,2.4-5.3,5.3-5.3S17.4,5,17.4,8L12.9,8L12.9,8z"/>
</svg>
