<svg xmlns="http://www.w3.org/2000/svg" viewBox="0 0 14.4 21.77"><title>meter_grey</title><path d="M14.4,7.2A7.2,7.2,0,1,0,0,7.2l2.46,5.4A5.21,5.21,0,0,0,5,19.51l0.14,0.06v2.2H9.25v-2.2A5.21,5.21,0,0,0,12,12.74l-0.08-.19ZM10,12.2a0.47,0.47,0,0,1-.93,0V9.06a0.47,0.47,0,0,1,.93,0V12.2Zm-2-5.31A0.87,0.87,0,0,0,7.24,6h0A0.86,0.86,0,0,0,6.9,6a4.61,4.61,0,0,0-.29-0.43,5.2,5.2,0,0,0-1-.85l-1-.82-1-.77,0.77,1c0.26,0.35.54,0.68,0.82,1a5.2,5.2,0,0,0,.85,1,5,5,0,0,0,.44.27,0.86,0.86,0,0,0-.06.3H1.89a5.34,5.34,0,1,1,10.68.15H8.07Z" transform="translate(0 0)" style="fill:#fff"/></svg>