<?xml version="1.0" encoding="utf-8"?>
<!-- Generator: Adobe Illustrator 19.2.0, SVG Export Plug-In . SVG Version: 6.00 Build 0)  -->
<svg version="1.1" id="Layer_1" xmlns="http://www.w3.org/2000/svg" xmlns:xlink="http://www.w3.org/1999/xlink" x="0px" y="0px"
	 width="14.4px" height="21.8px" viewBox="0 0 14.4 21.8" style="enable-background:new 0 0 14.4 21.8;" xml:space="preserve">
<style type="text/css">
	.st0{fill:#FFFFFF;}
</style>
<title>meter</title>
<path class="st0" d="M14.4,7.2c0-4-3.2-7.2-7.2-7.2S0,3.2,0,7.2l2.5,5.4c-1.2,2.6-0.1,5.7,2.5,6.9l0.1,0.1v2.2h4.1v-2.2
	c2.6-1.1,3.9-4.2,2.8-6.8l-0.1-0.2L14.4,7.2z M10,12.2c0,0.3-0.3,0.4-0.5,0.4c-0.2,0-0.4-0.2-0.4-0.4V9.1c0-0.3,0.3-0.4,0.5-0.4
	c0.2,0,0.4,0.2,0.4,0.4V12.2z M8.1,6.9C8.1,6.4,7.7,6,7.2,6c0,0,0,0,0,0l0,0C7.1,6,7,6,6.9,6C6.8,5.9,6.7,5.7,6.6,5.6
	C6.3,5.3,6,5,5.6,4.8l-1-0.8c-0.3-0.3-0.7-0.5-1-0.8l0.8,1c0.3,0.3,0.5,0.7,0.8,1c0.2,0.4,0.5,0.7,0.9,1c0.1,0.1,0.3,0.2,0.4,0.3
	c0,0.1-0.1,0.2-0.1,0.3H1.9c0-2.9,2.5-5.3,5.4-5.3s5.3,2.5,5.3,5.4l0,0C12.6,6.9,8.1,6.9,8.1,6.9z"/>
</svg>
