<?xml version="1.0" encoding="utf-8"?>
<!-- Generator: Adobe Illustrator 19.2.0, SVG Export Plug-In . SVG Version: 6.00 Build 0)  -->
<svg version="1.1" baseProfile="tiny" id="Layer_1" xmlns="http://www.w3.org/2000/svg" xmlns:xlink="http://www.w3.org/1999/xlink"
	 x="0px" y="0px" viewBox="0 0 160 122" xml:space="preserve">
<path fill="#FFFFFF" d="M87.2,47.3c-1.3-1.2-3.5-1.8-6.3-1.8H76v15h3.5c3.2,0,5.7-0.7,7.3-2c1.6-1.3,2.4-3.2,2.4-5.7
	C89.2,50.4,88.5,48.5,87.2,47.3z M130.9,47.3c-1.3-1.2-3.5-1.8-6.3-1.8H120v15h3.2c3.2,0,5.7-0.7,7.3-2c1.6-1.3,2.4-3.2,2.4-5.7
	C132.9,50.4,132.2,48.5,130.9,47.3z M40.8,47.1c-1.6-1-4.1-1.6-7.5-1.6H30v14h3.5c3.3,0,5.8-0.8,7.4-1.9c1.6-1.1,2.4-3,2.4-5.4
	C43.3,49.9,42.5,48,40.8,47.1z M155,33.4c0-12.6-10.2-22.9-22.9-22.9H27.9C15.2,10.5,5,20.7,5,33.4v55.3c0,12.6,10.2,22.9,22.9,22.9
	h104.3c12.6,0,22.9-10.2,22.9-22.9V33.4z M47.6,86.5l-11.9-19H30v19H20v-50h14.1c6.8,0,11.7,1.5,15,3.9c3.2,2.5,4.9,6.3,4.9,11.3
	c0,2.9-0.8,5.6-2.4,7.9c-1.6,2.3-3.9,4-6.8,5.3C52.1,76.1,57,83.5,59.3,86.5H47.6z M94.8,64.5c-3.3,2.8-8.1,4-14.3,4H76v18H66v-50
	h15.4c6,0,10.6,1.5,13.7,4.1c3.1,2.6,4.7,6.5,4.7,11.6C99.8,57.6,98.2,61.7,94.8,64.5z M138.5,64.5c-3.3,2.8-8.1,4-14.3,4H120v18
	h-11v-50h16.1c6,0,10.6,1.5,13.7,4.1c3.1,2.6,4.7,6.5,4.7,11.6C143.5,57.6,141.9,61.7,138.5,64.5z"/>
<rect x="-70.6" y="-26.9" fill="none" width="65.8" height="34.6"/>
<text transform="matrix(1 0 0 1 -70.3225 -1.0158)" fill="#FFFFFF" font-family="'OpenSans-Bold'" font-size="34px">RPP</text>
</svg>
