<?xml version="1.0" encoding="utf-8"?>
<!-- Generator: Adobe Illustrator 17.0.0, SVG Export Plug-In . SVG Version: 6.00 Build 0)  -->
<!DOCTYPE svg PUBLIC "-//W3C//DTD SVG 1.1//EN" "http://www.w3.org/Graphics/SVG/1.1/DTD/svg11.dtd">
<svg version="1.1"
	 id="svg4460" xmlns:inkscape="http://www.inkscape.org/namespaces/inkscape" xmlns:svg="http://www.w3.org/2000/svg" xmlns:rdf="http://www.w3.org/1999/02/22-rdf-syntax-ns#" xmlns:cc="http://creativecommons.org/ns#" xmlns:dc="http://purl.org/dc/elements/1.1/"
	 xmlns="http://www.w3.org/2000/svg" xmlns:xlink="http://www.w3.org/1999/xlink" x="0px" y="0px" width="24px" height="24px"
	 viewBox="0 0 24 24" enable-background="new 0 0 24 24" xml:space="preserve">
<circle fill="#515151" cx="12" cy="12" r="11.5"/>
<g id="layer1" transform="translate(0,-1028.3622)">
	<path id="path3055" inkscape:connector-curvature="0" fill="#FFFFFF" d="M14.8,1033.362c0,0-0.467,0-0.467,0.467
		s0.467,0.467,0.467,0.467h1.4l0.671,2.625l-3.238,4.609c-0.639,0.687-0.946,1.167-1.633,1.167h-1.867v-4.667h0.933
		c0.517,0,0.933-0.416,0.933-0.933c0-0.517-0.416-0.933-0.933-0.933H4.533c-0.517,0-0.933,0.416-0.933,0.933
		c0,0.517,0.416,0.933,0.933,0.933H5c0.259,0,0.467,0.208,0.467,0.467c0,0.259-0.208,0.467-0.467,0.467H4.533
		c-0.467,0-0.933,0.467-0.933,0.933v4.667H12c1.52,0,2.444-1,3.033-1.633c0.669-0.72,1.07-1.167,1.633-1.167H20.4v-0.467
		c0-0.467-0.758-0.933-0.933-1.4l-0.933-3.733c0.517,0,0.933-0.416,0.933-0.933v-0.933c0-0.517-0.416-0.933-0.933-0.933H14.8z
		 M18.067,1042.696c-1.289,0-2.333,1.044-2.333,2.333c0,1.289,1.044,2.333,2.333,2.333c1.289,0,2.333-1.044,2.333-2.333
		C20.4,1043.74,19.356,1042.696,18.067,1042.696z M4.591,1045.495c0.217,1.063,1.147,1.867,2.275,1.867s2.057-0.804,2.275-1.867
		H4.591z"/>
</g>
<rect id="canvas" display="none" fill="none" width="24" height="24"/>
</svg>
