<?xml version="1.0" encoding="utf-8"?>
<!-- Generator: Adobe Illustrator 17.0.0, SVG Export Plug-In . SVG Version: 6.00 Build 0)  -->
<!DOCTYPE svg PUBLIC "-//W3C//DTD SVG 1.1//EN" "http://www.w3.org/Graphics/SVG/1.1/DTD/svg11.dtd">
<svg version="1.1" id="Layer_1" xmlns="http://www.w3.org/2000/svg" xmlns:xlink="http://www.w3.org/1999/xlink" x="0px" y="0px"
	 width="24px" height="24px" viewBox="-382.071 257.5 24 24" enable-background="new -382.071 257.5 24 24" xml:space="preserve">
<g>
	
		<path fill="#FFFFFF" stroke="#000000" stroke-width="0.5" stroke-linecap="round" stroke-linejoin="round" stroke-miterlimit="10" d="
		M-370.086,261.757c0.938,0,1.698-0.761,1.698-1.697c0-0.937-0.76-1.698-1.698-1.698c-0.938,0-1.698,0.76-1.698,1.698
		C-371.783,260.996-371.024,261.757-370.086,261.757z"/>
	
		<path fill="#FFFFFF" stroke="#000000" stroke-width="0.5" stroke-linecap="round" stroke-linejoin="round" stroke-miterlimit="10" d="
		M-367.794,262.46h-4.572c-0.901,0-1.803,0.652-1.803,1.509v5.444h1.484v-4.382h0.002c0.002-0.087,0.073-0.157,0.161-0.157
		c0.087,0,0.158,0.07,0.16,0.157c0,0,0,0.001,0,0.001v0.007v14.532c0,0.001,0,0.002,0,0.002c0,0.588,0.477,1.065,1.065,1.065
		c0.588,0,1.065-0.477,1.065-1.065v0v-8.387h0.002c0-0.003-0.002-0.005-0.002-0.008c0-0.089,0.072-0.161,0.161-0.161
		c0.089,0,0.161,0.073,0.161,0.161c0,0.003-0.001,0.005-0.001,0.008h0.003v8.383c0,0.002,0,0.003,0,0.005
		c0,0.588,0.477,1.065,1.065,1.065c0.587,0,1.065-0.477,1.065-1.065h0v-14.543h0.002c0.003-0.087,0.073-0.157,0.161-0.157
		c0.089,0,0.161,0.072,0.161,0.162c0,0.003-0.001,0.004-0.001,0.007v4.371h1.483v-5.339
		C-365.974,263.167-366.855,262.46-367.794,262.46z M-370.071,269.329c-0.154,0-0.278-0.125-0.278-0.278
		c0-0.154,0.125-0.279,0.278-0.279s0.278,0.125,0.278,0.279C-369.793,269.205-369.917,269.329-370.071,269.329z M-370.071,267.612
		c-0.154,0-0.278-0.125-0.278-0.278s0.125-0.279,0.278-0.279s0.278,0.125,0.278,0.279
		C-369.793,267.487-369.917,267.612-370.071,267.612z M-370.071,265.895c-0.154,0-0.278-0.125-0.278-0.278
		c0-0.154,0.125-0.279,0.278-0.279s0.278,0.125,0.278,0.279C-369.793,265.77-369.917,265.895-370.071,265.895z M-370.071,264.178
		c-0.154,0-0.278-0.125-0.278-0.278s0.125-0.279,0.278-0.279s0.278,0.125,0.278,0.279
		C-369.793,264.053-369.917,264.178-370.071,264.178z"/>
</g>
</svg>
