<?xml version="1.0" standalone="no"?>
<!DOCTYPE svg PUBLIC "-//W3C//DTD SVG 20010904//EN"
 "http://www.w3.org/TR/2001/REC-SVG-20010904/DTD/svg10.dtd">
<svg version="1.0" xmlns="http://www.w3.org/2000/svg"
 width="310.000000pt" height="310.000000pt" viewBox="0 0 310.000000 310.000000"
 preserveAspectRatio="xMidYMid meet">
<metadata>
Created by potrace 1.11, written by Peter Selinger 2001-2013
</metadata>
<g transform="translate(0.000000,310.000000) scale(0.100000,-0.100000)"
fill="#000000" stroke="none">
<path d="M1531 2753 c-5 -10 -21 -47 -36 -83 -38 -92 -630 -1487 -660 -1555
-17 -39 -130 -305 -240 -564 -54 -128 -83 -207 -77 -213 8 -8 214 75 477 192
22 10 156 68 298 129 l258 112 149 -66 c82 -36 151 -65 154 -65 2 0 33 -13 68
-29 35 -16 164 -73 287 -126 236 -101 301 -130 339 -148 52 -25 46 10 -33 188
-12 29 -143 337 -364 860 -56 132 -108 254 -115 270 -8 17 -58 134 -111 260
-54 127 -136 320 -182 430 -47 110 -91 214 -98 230 -7 17 -24 56 -39 87 -14
32 -28 69 -32 83 -7 29 -29 33 -43 8z"/>
</g>
</svg>
