<?xml version="1.0" encoding="utf-8"?>
<!-- Generator: Adobe Illustrator 19.2.0, SVG Export Plug-In . SVG Version: 6.00 Build 0)  -->
<svg version="1.1" id="Layer_1" xmlns="http://www.w3.org/2000/svg" xmlns:xlink="http://www.w3.org/1999/xlink" x="0px" y="0px"
	 viewBox="0 0 75 93.8" style="enable-background:new 0 0 75 93.8;" xml:space="preserve">
<style type="text/css">
	.st0{fill:#FFFFFF;}
</style>
<g>
	<path class="st0" d="M65.5,32.5c0-15.5-12.5-28-28-28c-15.5,0-28,12.5-28,28l9.6,21c-1.2,2.6-1.9,5.4-1.9,8.4
		c0,8.4,5.1,15.5,12.3,18.6v8.6h16v-8.6c7.2-3.1,12.3-10.3,12.3-18.6c0-3.1-0.7-6-2-8.6L65.5,32.5z M48.5,52c0,1-0.8,1.8-1.8,1.8
		c-1,0-1.8-0.8-1.8-1.8V39.8c0-1,0.8-1.8,1.8-1.8c1,0,1.8,0.8,1.8,1.8V52z M40.9,31.2c0-1.9-1.5-3.4-3.4-3.4c-0.4,0-0.8,0.1-1.2,0.2
		c-0.3-0.6-0.7-1.1-1.1-1.7c-1-1.4-2.5-2.2-3.8-3.3c-1.3-1.1-2.6-2.1-3.9-3.2c-1.4-1-2.7-2.1-4.1-3c-0.1,0-0.1,0-0.2,0
		c-0.1,0.1-0.1,0.2,0,0.3c1,1.4,2,2.7,3,4.1c1,1.3,2.1,2.7,3.2,3.9c1.1,1.3,1.9,2.8,3.3,3.8c0.5,0.4,1.1,0.8,1.7,1.1
		c-0.1,0.4-0.2,0.8-0.2,1.2H16.8c0-11.5,9.3-20.8,20.8-20.8s20.8,9.3,20.8,20.8H40.9z"/>
</g>
</svg>
