<svg xmlns="http://www.w3.org/2000/svg" viewBox="0 0 180 221.16"><title>Untitled-1</title><polygon points="180 0 0 0 0 56.24 27.36 56.24 27.36 28.12 152.63 28.12 152.63 56.24 180 56.24 180 28.12 180 28.12 180 0" style="fill:#565652"/><path d="M232.81,208.44c-7.5-7.09-14.06-14.9-18.25-24.46-2.89-6.59-5.36-13.35-5.58-20.62-0.24-7.85.45-15.75-.17-23.55-0.67-8.3.17-16.7-1.91-24.92a36.18,36.18,0,0,0-6.29-13.42c4.62,7.34,4.55,7.93,0,.71a51.42,51.42,0,0,0-6.73-8.5,55.07,55.07,0,0,0-6.76-5.89,58.1,58.1,0,0,0-7-4.44,60.27,60.27,0,0,0-6.44-3A63.61,63.61,0,0,0,150.91,76h-0.56l-1.12,0c-22.27.38-41.43,12-50.61,28.65l-0.08.13-0.06.11A58.42,58.42,0,0,0,92.14,129c-0.39,8.23-1,16.5-.64,24.72,0.73,17.83-5.91,33-16.28,46.79-2.19,2.92-5,5.33-7.67,7.92H67v33.34h61.08c0,0.18.06,0.36,0.1,0.54a22.17,22.17,0,0,0,20.58,18.22c0.41,0,.82,0,1.24,0,0.57,0,1.13,0,1.69-.07A22,22,0,0,0,158.1,259a14.8,14.8,0,0,0,4.15-2.16,22.18,22.18,0,0,0,9.54-14.45c0-.22.08-0.43,0.11-0.65h15.24l-13.36-23.49,6.47-21.84L166,158.74h1.4l17.72,37.7-4.51,21.69L196,241.78h37V208.44h-0.18Z" transform="translate(-60 -39.42)" style="fill:#565652"/></svg>